<?xml version="1.0" encoding="UTF-8" standalone="no"?><!-- Generator: Gravit.io --><svg xmlns="http://www.w3.org/2000/svg" xmlns:xlink="http://www.w3.org/1999/xlink" style="isolation:isolate" viewBox="486 48 265.77 265.765" width="265.77pt" height="265.765pt"><defs><clipPath id="_clipPath_q3aRKK0KsUPXCaed0bx6qKMjztUrEBXN"><rect x="486" y="48" width="265.77" height="265.765"/></clipPath></defs><g clip-path="url(#_clipPath_q3aRKK0KsUPXCaed0bx6qKMjztUrEBXN)"><defs><filter id="dgiAZ8CbfhDsd14B8ir5HIiTTKG1X8pd" x="-200%" y="-200%" width="400%" height="400%" filterUnits="objectBoundingBox" color-interpolation-filters="sRGB"><feGaussianBlur xmlns="http://www.w3.org/2000/svg" in="SourceGraphic" stdDeviation="0.42936090628390283"/><feOffset xmlns="http://www.w3.org/2000/svg" dx="0" dy="0" result="pf_100_offsetBlur"/><feFlood xmlns="http://www.w3.org/2000/svg" flood-color="#000000" flood-opacity="0.6"/><feComposite xmlns="http://www.w3.org/2000/svg" in2="pf_100_offsetBlur" operator="in" result="pf_100_dropShadow"/><feBlend xmlns="http://www.w3.org/2000/svg" in="SourceGraphic" in2="pf_100_dropShadow" mode="normal"/><feGaussianBlur xmlns="http://www.w3.org/2000/svg" stdDeviation="0" result="_out_1EcAuaGLg8gJl7qVY330syMlIgc0k4Ls"/><feGaussianBlur xmlns="http://www.w3.org/2000/svg" stdDeviation="0" in="_out_1EcAuaGLg8gJl7qVY330syMlIgc0k4Ls"/></filter></defs><g filter="url(#dgiAZ8CbfhDsd14B8ir5HIiTTKG1X8pd)"><path d=" M 749.77 62.502 C 749.77 55.602 744.168 50 737.258 50 L 500.502 50 C 493.602 50 488 55.602 488 62.502 L 488 299.263 C 488 306.163 493.602 311.765 500.502 311.765 L 737.258 311.765 C 744.168 311.765 749.77 306.163 749.77 299.263 L 749.77 62.502 Z " fill-rule="evenodd" fill="rgb(238,238,238)"/></g><text transform="matrix(1,0,0,1,573.808,286.22)" style="font-family:'Paprika';font-weight:400;font-size:36px;font-style:normal;fill:#000000;stroke:none;">Earn</text><path d=" M 701.759 84.761 C 701.759 80.353 698.212 76.775 693.837 76.775 L 543.927 76.775 C 539.558 76.775 536.011 80.353 536.011 84.761 L 536.011 236.013 C 536.011 240.421 539.558 244 543.927 244 L 693.837 244 C 698.212 244 701.759 240.421 701.759 236.013 L 701.759 84.761 Z " fill-rule="evenodd" fill="rgb(195,207,217)"/><path d=" M 582.5 132.268 L 582.5 180.268 L 583.5 180.268 C 612.402 180.268 643.137 192.202 643.137 192.202 L 644.5 192.732 L 644.5 183.256 C 646.77 183.823 648.219 184.225 648.219 184.225 L 649.5 184.608 L 649.5 172.268 L 652.5 172.268 L 652.5 132.268 L 582.5 132.268 Z  M 584.5 134.268 L 650.5 134.268 L 650.5 170.268 L 584.5 170.268 L 584.5 134.268 Z  M 593.5 136.268 C 592.95 136.268 592.5 136.718 592.5 137.268 C 592.5 137.818 592.95 138.268 593.5 138.268 C 594.05 138.268 594.5 137.818 594.5 137.268 C 594.5 136.718 594.05 136.268 593.5 136.268 Z  M 596.5 136.268 C 595.95 136.268 595.5 136.718 595.5 137.268 C 595.5 137.818 595.95 138.268 596.5 138.268 C 597.05 138.268 597.5 137.818 597.5 137.268 C 597.5 136.718 597.05 136.268 596.5 136.268 Z  M 599.5 136.268 C 598.95 136.268 598.5 136.718 598.5 137.268 C 598.5 137.818 598.95 138.268 599.5 138.268 C 600.05 138.268 600.5 137.818 600.5 137.268 C 600.5 136.718 600.05 136.268 599.5 136.268 Z  M 602.5 136.268 C 601.95 136.268 601.5 136.718 601.5 137.268 C 601.5 137.818 601.95 138.268 602.5 138.268 C 603.05 138.268 603.5 137.818 603.5 137.268 C 603.5 136.718 603.05 136.268 602.5 136.268 Z  M 605.5 136.268 C 604.95 136.268 604.5 136.718 604.5 137.268 C 604.5 137.818 604.95 138.268 605.5 138.268 C 606.05 138.268 606.5 137.818 606.5 137.268 C 606.5 136.718 606.05 136.268 605.5 136.268 Z  M 608.5 136.268 C 607.95 136.268 607.5 136.718 607.5 137.268 C 607.5 137.818 607.95 138.268 608.5 138.268 C 609.05 138.268 609.5 137.818 609.5 137.268 C 609.5 136.718 609.05 136.268 608.5 136.268 Z  M 611.5 136.268 C 610.95 136.268 610.5 136.718 610.5 137.268 C 610.5 137.818 610.95 138.268 611.5 138.268 C 612.05 138.268 612.5 137.818 612.5 137.268 C 612.5 136.718 612.05 136.268 611.5 136.268 Z  M 614.5 136.268 C 613.95 136.268 613.5 136.718 613.5 137.268 C 613.5 137.818 613.95 138.268 614.5 138.268 C 615.05 138.268 615.5 137.818 615.5 137.268 C 615.5 136.718 615.05 136.268 614.5 136.268 Z  M 617.5 136.268 C 616.95 136.268 616.5 136.718 616.5 137.268 C 616.5 137.818 616.95 138.268 617.5 138.268 C 618.05 138.268 618.5 137.818 618.5 137.268 C 618.5 136.718 618.05 136.268 617.5 136.268 Z  M 620.5 136.268 C 619.95 136.268 619.5 136.718 619.5 137.268 C 619.5 137.818 619.95 138.268 620.5 138.268 C 621.05 138.268 621.5 137.818 621.5 137.268 C 621.5 136.718 621.05 136.268 620.5 136.268 Z  M 623.5 136.268 C 622.95 136.268 622.5 136.718 622.5 137.268 C 622.5 137.818 622.95 138.268 623.5 138.268 C 624.05 138.268 624.5 137.818 624.5 137.268 C 624.5 136.718 624.05 136.268 623.5 136.268 Z  M 626.5 136.268 C 625.95 136.268 625.5 136.718 625.5 137.268 C 625.5 137.818 625.95 138.268 626.5 138.268 C 627.05 138.268 627.5 137.818 627.5 137.268 C 627.5 136.718 627.05 136.268 626.5 136.268 Z  M 629.5 136.268 C 628.95 136.268 628.5 136.718 628.5 137.268 C 628.5 137.818 628.95 138.268 629.5 138.268 C 630.05 138.268 630.5 137.818 630.5 137.268 C 630.5 136.718 630.05 136.268 629.5 136.268 Z  M 632.5 136.268 C 631.95 136.268 631.5 136.718 631.5 137.268 C 631.5 137.818 631.95 138.268 632.5 138.268 C 633.05 138.268 633.5 137.818 633.5 137.268 C 633.5 136.718 633.05 136.268 632.5 136.268 Z  M 635.5 136.268 C 634.95 136.268 634.5 136.718 634.5 137.268 C 634.5 137.818 634.95 138.268 635.5 138.268 C 636.05 138.268 636.5 137.818 636.5 137.268 C 636.5 136.718 636.05 136.268 635.5 136.268 Z  M 638.5 136.268 C 637.95 136.268 637.5 136.718 637.5 137.268 C 637.5 137.818 637.95 138.268 638.5 138.268 C 639.05 138.268 639.5 137.818 639.5 137.268 C 639.5 136.718 639.05 136.268 638.5 136.268 Z  M 641.5 136.268 C 640.95 136.268 640.5 136.718 640.5 137.268 C 640.5 137.818 640.95 138.268 641.5 138.268 C 642.05 138.268 642.5 137.818 642.5 137.268 C 642.5 136.718 642.05 136.268 641.5 136.268 Z  M 592.5 139.268 C 591.95 139.268 591.5 139.718 591.5 140.268 C 591.5 140.818 591.95 141.268 592.5 141.268 C 593.05 141.268 593.5 140.818 593.5 140.268 C 593.5 139.718 593.05 139.268 592.5 139.268 Z  M 642.5 139.268 C 641.95 139.268 641.5 139.718 641.5 140.268 C 641.5 140.818 641.95 141.268 642.5 141.268 C 643.05 141.268 643.5 140.818 643.5 140.268 C 643.5 139.718 643.05 139.268 642.5 139.268 Z  M 590.5 141.268 C 589.95 141.268 589.5 141.718 589.5 142.268 C 589.5 142.818 589.95 143.268 590.5 143.268 C 591.05 143.268 591.5 142.818 591.5 142.268 C 591.5 141.718 591.05 141.268 590.5 141.268 Z  M 617.5 141.268 C 611.437 141.268 606.5 146.206 606.5 152.268 C 606.5 158.331 611.438 163.268 617.5 163.268 C 623.563 163.268 628.5 158.33 628.5 152.268 C 628.5 146.205 623.562 141.268 617.5 141.268 Z  M 644.5 141.268 C 643.95 141.268 643.5 141.718 643.5 142.268 C 643.5 142.818 643.95 143.268 644.5 143.268 C 645.05 143.268 645.5 142.818 645.5 142.268 C 645.5 141.718 645.05 141.268 644.5 141.268 Z  M 587.5 142.268 C 586.95 142.268 586.5 142.718 586.5 143.268 C 586.5 143.818 586.95 144.268 587.5 144.268 C 588.05 144.268 588.5 143.818 588.5 143.268 C 588.5 142.718 588.05 142.268 587.5 142.268 Z  M 647.5 142.268 C 646.95 142.268 646.5 142.718 646.5 143.268 C 646.5 143.818 646.95 144.268 647.5 144.268 C 648.05 144.268 648.5 143.818 648.5 143.268 C 648.5 142.718 648.05 142.268 647.5 142.268 Z  M 617.5 143.268 C 622.48 143.268 626.5 147.288 626.5 152.268 C 626.5 157.248 622.48 161.268 617.5 161.268 C 612.52 161.268 608.5 157.248 608.5 152.268 C 608.5 147.288 612.52 143.268 617.5 143.268 Z  M 587.5 145.268 C 586.95 145.268 586.5 145.718 586.5 146.268 C 586.5 146.818 586.95 147.268 587.5 147.268 C 588.05 147.268 588.5 146.818 588.5 146.268 C 588.5 145.718 588.05 145.268 587.5 145.268 Z  M 647.5 145.268 C 646.95 145.268 646.5 145.718 646.5 146.268 C 646.5 146.818 646.95 147.268 647.5 147.268 C 648.05 147.268 648.5 146.818 648.5 146.268 C 648.5 145.718 648.05 145.268 647.5 145.268 Z  M 587.5 148.268 C 586.95 148.268 586.5 148.718 586.5 149.268 C 586.5 149.818 586.95 150.268 587.5 150.268 C 588.05 150.268 588.5 149.818 588.5 149.268 C 588.5 148.718 588.05 148.268 587.5 148.268 Z  M 596.5 148.268 C 594.3 148.268 592.5 150.068 592.5 152.268 C 592.5 154.468 594.3 156.268 596.5 156.268 C 598.7 156.268 600.5 154.468 600.5 152.268 C 600.5 150.068 598.7 148.268 596.5 148.268 Z  M 637.5 148.268 C 635.3 148.268 633.5 150.068 633.5 152.268 C 633.5 154.468 635.3 156.268 637.5 156.268 C 639.7 156.268 641.5 154.468 641.5 152.268 C 641.5 150.068 639.7 148.268 637.5 148.268 Z  M 647.5 148.268 C 646.95 148.268 646.5 148.718 646.5 149.268 C 646.5 149.818 646.95 150.268 647.5 150.268 C 648.05 150.268 648.5 149.818 648.5 149.268 C 648.5 148.718 648.05 148.268 647.5 148.268 Z  M 596.5 150.268 C 597.617 150.268 598.5 151.151 598.5 152.268 C 598.5 153.385 597.617 154.268 596.5 154.268 C 595.383 154.268 594.5 153.385 594.5 152.268 C 594.5 151.151 595.383 150.268 596.5 150.268 Z  M 637.5 150.268 C 638.617 150.268 639.5 151.151 639.5 152.268 C 639.5 153.385 638.617 154.268 637.5 154.268 C 636.383 154.268 635.5 153.385 635.5 152.268 C 635.5 151.151 636.383 150.268 637.5 150.268 Z  M 587.5 151.268 C 586.95 151.268 586.5 151.718 586.5 152.268 C 586.5 152.818 586.95 153.268 587.5 153.268 C 588.05 153.268 588.5 152.818 588.5 152.268 C 588.5 151.718 588.05 151.268 587.5 151.268 Z  M 647.5 151.268 C 646.95 151.268 646.5 151.718 646.5 152.268 C 646.5 152.818 646.95 153.268 647.5 153.268 C 648.05 153.268 648.5 152.818 648.5 152.268 C 648.5 151.718 648.05 151.268 647.5 151.268 Z  M 587.5 154.268 C 586.95 154.268 586.5 154.718 586.5 155.268 C 586.5 155.818 586.95 156.268 587.5 156.268 C 588.05 156.268 588.5 155.818 588.5 155.268 C 588.5 154.718 588.05 154.268 587.5 154.268 Z  M 647.5 154.268 C 646.95 154.268 646.5 154.718 646.5 155.268 C 646.5 155.818 646.95 156.268 647.5 156.268 C 648.05 156.268 648.5 155.818 648.5 155.268 C 648.5 154.718 648.05 154.268 647.5 154.268 Z  M 587.5 157.268 C 586.95 157.268 586.5 157.718 586.5 158.268 C 586.5 158.818 586.95 159.268 587.5 159.268 C 588.05 159.268 588.5 158.818 588.5 158.268 C 588.5 157.718 588.05 157.268 587.5 157.268 Z  M 647.5 157.268 C 646.95 157.268 646.5 157.718 646.5 158.268 C 646.5 158.818 646.95 159.268 647.5 159.268 C 648.05 159.268 648.5 158.818 648.5 158.268 C 648.5 157.718 648.05 157.268 647.5 157.268 Z  M 587.5 160.268 C 586.95 160.268 586.5 160.718 586.5 161.268 C 586.5 161.818 586.95 162.268 587.5 162.268 C 588.05 162.268 588.5 161.818 588.5 161.268 C 588.5 160.718 588.05 160.268 587.5 160.268 Z  M 647.5 160.268 C 646.95 160.268 646.5 160.718 646.5 161.268 C 646.5 161.818 646.95 162.268 647.5 162.268 C 648.05 162.268 648.5 161.818 648.5 161.268 C 648.5 160.718 648.05 160.268 647.5 160.268 Z  M 590.5 161.268 C 589.95 161.268 589.5 161.718 589.5 162.268 C 589.5 162.818 589.95 163.268 590.5 163.268 C 591.05 163.268 591.5 162.818 591.5 162.268 C 591.5 161.718 591.05 161.268 590.5 161.268 Z  M 644.5 161.268 C 643.95 161.268 643.5 161.718 643.5 162.268 C 643.5 162.818 643.95 163.268 644.5 163.268 C 645.05 163.268 645.5 162.818 645.5 162.268 C 645.5 161.718 645.05 161.268 644.5 161.268 Z  M 592.5 163.268 C 591.95 163.268 591.5 163.718 591.5 164.268 C 591.5 164.818 591.95 165.268 592.5 165.268 C 593.05 165.268 593.5 164.818 593.5 164.268 C 593.5 163.718 593.05 163.268 592.5 163.268 Z  M 642.5 163.268 C 641.95 163.268 641.5 163.718 641.5 164.268 C 641.5 164.818 641.95 165.268 642.5 165.268 C 643.05 165.268 643.5 164.818 643.5 164.268 C 643.5 163.718 643.05 163.268 642.5 163.268 Z  M 593.5 166.268 C 592.95 166.268 592.5 166.718 592.5 167.268 C 592.5 167.818 592.95 168.268 593.5 168.268 C 594.05 168.268 594.5 167.818 594.5 167.268 C 594.5 166.718 594.05 166.268 593.5 166.268 Z  M 596.5 166.268 C 595.95 166.268 595.5 166.718 595.5 167.268 C 595.5 167.818 595.95 168.268 596.5 168.268 C 597.05 168.268 597.5 167.818 597.5 167.268 C 597.5 166.718 597.05 166.268 596.5 166.268 Z  M 599.5 166.268 C 598.95 166.268 598.5 166.718 598.5 167.268 C 598.5 167.818 598.95 168.268 599.5 168.268 C 600.05 168.268 600.5 167.818 600.5 167.268 C 600.5 166.718 600.05 166.268 599.5 166.268 Z  M 602.5 166.268 C 601.95 166.268 601.5 166.718 601.5 167.268 C 601.5 167.818 601.95 168.268 602.5 168.268 C 603.05 168.268 603.5 167.818 603.5 167.268 C 603.5 166.718 603.05 166.268 602.5 166.268 Z  M 605.5 166.268 C 604.95 166.268 604.5 166.718 604.5 167.268 C 604.5 167.818 604.95 168.268 605.5 168.268 C 606.05 168.268 606.5 167.818 606.5 167.268 C 606.5 166.718 606.05 166.268 605.5 166.268 Z  M 608.5 166.268 C 607.95 166.268 607.5 166.718 607.5 167.268 C 607.5 167.818 607.95 168.268 608.5 168.268 C 609.05 168.268 609.5 167.818 609.5 167.268 C 609.5 166.718 609.05 166.268 608.5 166.268 Z  M 611.5 166.268 C 610.95 166.268 610.5 166.718 610.5 167.268 C 610.5 167.818 610.95 168.268 611.5 168.268 C 612.05 168.268 612.5 167.818 612.5 167.268 C 612.5 166.718 612.05 166.268 611.5 166.268 Z  M 614.5 166.268 C 613.95 166.268 613.5 166.718 613.5 167.268 C 613.5 167.818 613.95 168.268 614.5 168.268 C 615.05 168.268 615.5 167.818 615.5 167.268 C 615.5 166.718 615.05 166.268 614.5 166.268 Z  M 617.5 166.268 C 616.95 166.268 616.5 166.718 616.5 167.268 C 616.5 167.818 616.95 168.268 617.5 168.268 C 618.05 168.268 618.5 167.818 618.5 167.268 C 618.5 166.718 618.05 166.268 617.5 166.268 Z  M 620.5 166.268 C 619.95 166.268 619.5 166.718 619.5 167.268 C 619.5 167.818 619.95 168.268 620.5 168.268 C 621.05 168.268 621.5 167.818 621.5 167.268 C 621.5 166.718 621.05 166.268 620.5 166.268 Z  M 623.5 166.268 C 622.95 166.268 622.5 166.718 622.5 167.268 C 622.5 167.818 622.95 168.268 623.5 168.268 C 624.05 168.268 624.5 167.818 624.5 167.268 C 624.5 166.718 624.05 166.268 623.5 166.268 Z  M 626.5 166.268 C 625.95 166.268 625.5 166.718 625.5 167.268 C 625.5 167.818 625.95 168.268 626.5 168.268 C 627.05 168.268 627.5 167.818 627.5 167.268 C 627.5 166.718 627.05 166.268 626.5 166.268 Z  M 629.5 166.268 C 628.95 166.268 628.5 166.718 628.5 167.268 C 628.5 167.818 628.95 168.268 629.5 168.268 C 630.05 168.268 630.5 167.818 630.5 167.268 C 630.5 166.718 630.05 166.268 629.5 166.268 Z  M 632.5 166.268 C 631.95 166.268 631.5 166.718 631.5 167.268 C 631.5 167.818 631.95 168.268 632.5 168.268 C 633.05 168.268 633.5 167.818 633.5 167.268 C 633.5 166.718 633.05 166.268 632.5 166.268 Z  M 635.5 166.268 C 634.95 166.268 634.5 166.718 634.5 167.268 C 634.5 167.818 634.95 168.268 635.5 168.268 C 636.05 168.268 636.5 167.818 636.5 167.268 C 636.5 166.718 636.05 166.268 635.5 166.268 Z  M 638.5 166.268 C 637.95 166.268 637.5 166.718 637.5 167.268 C 637.5 167.818 637.95 168.268 638.5 168.268 C 639.05 168.268 639.5 167.818 639.5 167.268 C 639.5 166.718 639.05 166.268 638.5 166.268 Z  M 641.5 166.268 C 640.95 166.268 640.5 166.718 640.5 167.268 C 640.5 167.818 640.95 168.268 641.5 168.268 C 642.05 168.268 642.5 167.818 642.5 167.268 C 642.5 166.718 642.05 166.268 641.5 166.268 Z  M 584.5 172.268 L 647.5 172.268 L 647.5 181.975 C 644.234 181.057 619.496 174.428 584.5 174.295 L 584.5 172.268 Z  M 641.5 172.268 C 640.95 172.268 640.5 172.718 640.5 173.268 C 640.5 173.818 640.95 174.268 641.5 174.268 C 642.05 174.268 642.5 173.818 642.5 173.268 C 642.5 172.718 642.05 172.268 641.5 172.268 Z  M 639.5 175.268 C 638.95 175.268 638.5 175.718 638.5 176.268 C 638.5 176.818 638.95 177.268 639.5 177.268 C 640.05 177.268 640.5 176.818 640.5 176.268 C 640.5 175.718 640.05 175.268 639.5 175.268 Z  M 584.5 176.284 C 606.336 176.366 624.27 179.057 635.5 181.288 C 635.512 181.83 635.957 182.268 636.5 182.268 C 636.896 182.267 637.255 182.033 637.414 181.67 C 639.324 182.065 641.074 182.448 642.5 182.78 L 642.5 189.85 C 638.941 188.506 611.746 178.565 584.5 178.315 L 584.5 176.284 Z  M 634.5 183.268 C 633.95 183.268 633.5 183.718 633.5 184.268 C 633.5 184.818 633.95 185.268 634.5 185.268 C 635.05 185.268 635.5 184.818 635.5 184.268 C 635.5 183.718 635.05 183.268 634.5 183.268 Z " fill="rgb(0,0,0)"/></g></svg>