<?xml version="1.0" encoding="UTF-8" standalone="no"?><!-- Generator: Gravit.io --><svg xmlns="http://www.w3.org/2000/svg" xmlns:xlink="http://www.w3.org/1999/xlink" style="isolation:isolate" viewBox="486 48 265.77 265.765" width="265.77pt" height="265.765pt"><defs><clipPath id="_clipPath_0YCSpH4DXTUCeTzkTmQtTwU9YtdYfxys"><rect x="486" y="48" width="265.77" height="265.765"/></clipPath></defs><g clip-path="url(#_clipPath_0YCSpH4DXTUCeTzkTmQtTwU9YtdYfxys)"><defs><filter id="3iMLN3ioRJs7OLDA4OcM3LNLmlBy4SUZ" x="-200%" y="-200%" width="400%" height="400%" filterUnits="objectBoundingBox" color-interpolation-filters="sRGB"><feGaussianBlur xmlns="http://www.w3.org/2000/svg" in="SourceGraphic" stdDeviation="0.42936090628390283"/><feOffset xmlns="http://www.w3.org/2000/svg" dx="0" dy="0" result="pf_100_offsetBlur"/><feFlood xmlns="http://www.w3.org/2000/svg" flood-color="#000000" flood-opacity="0.6"/><feComposite xmlns="http://www.w3.org/2000/svg" in2="pf_100_offsetBlur" operator="in" result="pf_100_dropShadow"/><feBlend xmlns="http://www.w3.org/2000/svg" in="SourceGraphic" in2="pf_100_dropShadow" mode="normal"/><feGaussianBlur xmlns="http://www.w3.org/2000/svg" stdDeviation="0" result="_out_PlSIGQTu2EY64OA5LC7l16uRGkYos931"/><feGaussianBlur xmlns="http://www.w3.org/2000/svg" stdDeviation="0" in="_out_PlSIGQTu2EY64OA5LC7l16uRGkYos931"/></filter></defs><g filter="url(#3iMLN3ioRJs7OLDA4OcM3LNLmlBy4SUZ)"><path d=" M 749.77 62.502 C 749.77 55.602 744.168 50 737.258 50 L 500.502 50 C 493.602 50 488 55.602 488 62.502 L 488 299.263 C 488 306.163 493.602 311.765 500.502 311.765 L 737.258 311.765 C 744.168 311.765 749.77 306.163 749.77 299.263 L 749.77 62.502 Z " fill-rule="evenodd" fill="rgb(238,238,238)"/></g><text transform="matrix(1,0,0,1,565.222,278.22)" style="font-family:'Paprika';font-weight:400;font-size:36px;font-style:normal;fill:#000000;stroke:none;">Login</text><path d=" M 701.759 84.236 C 701.759 80.118 698.212 76.775 693.837 76.775 L 543.927 76.775 C 539.558 76.775 536.011 80.118 536.011 84.236 L 536.011 225.539 C 536.011 229.657 539.558 233 543.927 233 L 693.837 233 C 698.212 233 701.759 229.657 701.759 225.539 L 701.759 84.236 Z " fill-rule="evenodd" fill="rgb(195,207,217)"/><path d=" M 675.77 126.193 C 675.77 125.744 673.335 125.38 670.332 125.38 L 567.434 125.38 C 564.435 125.38 562 125.744 562 126.193 L 562 141.572 C 562 142.02 564.435 142.384 567.434 142.384 L 670.332 142.384 C 673.335 142.384 675.77 142.02 675.77 141.572 L 675.77 126.193 Z " fill-rule="evenodd" fill="rgb(255,255,255)"/><path d=" M 675.77 166.31 C 675.77 165.862 673.335 165.498 670.332 165.498 L 567.434 165.498 C 564.435 165.498 562 165.862 562 166.31 L 562 181.69 C 562 182.138 564.435 182.502 567.434 182.502 L 670.332 182.502 C 673.335 182.502 675.77 182.138 675.77 181.69 L 675.77 166.31 Z " fill-rule="evenodd" fill="rgb(255,255,255)"/></g></svg>