<?xml version="1.0" encoding="UTF-8" standalone="no"?><!-- Generator: Gravit.io --><svg xmlns="http://www.w3.org/2000/svg" xmlns:xlink="http://www.w3.org/1999/xlink" style="isolation:isolate" viewBox="486 48 265.77 265.765" width="265.77pt" height="265.765pt"><defs><clipPath id="_clipPath_3nQOjxW538TUIIonZ9s0wdQKM1gXNKzT"><rect x="486" y="48" width="265.77" height="265.765"/></clipPath></defs><g clip-path="url(#_clipPath_3nQOjxW538TUIIonZ9s0wdQKM1gXNKzT)"><defs><filter id="ht1vVVsAVvLk0HYDxIaMGQ2eIeyyx1fe" x="-200%" y="-200%" width="400%" height="400%" filterUnits="objectBoundingBox" color-interpolation-filters="sRGB"><feGaussianBlur xmlns="http://www.w3.org/2000/svg" in="SourceGraphic" stdDeviation="0.42936090628390283"/><feOffset xmlns="http://www.w3.org/2000/svg" dx="0" dy="0" result="pf_100_offsetBlur"/><feFlood xmlns="http://www.w3.org/2000/svg" flood-color="#000000" flood-opacity="0.6"/><feComposite xmlns="http://www.w3.org/2000/svg" in2="pf_100_offsetBlur" operator="in" result="pf_100_dropShadow"/><feBlend xmlns="http://www.w3.org/2000/svg" in="SourceGraphic" in2="pf_100_dropShadow" mode="normal"/><feGaussianBlur xmlns="http://www.w3.org/2000/svg" stdDeviation="0" result="_out_HqMpSs48TtIlufrEnFl1S8SrHyypG6Cu"/><feGaussianBlur xmlns="http://www.w3.org/2000/svg" stdDeviation="0" in="_out_HqMpSs48TtIlufrEnFl1S8SrHyypG6Cu"/></filter></defs><g filter="url(#ht1vVVsAVvLk0HYDxIaMGQ2eIeyyx1fe)"><path d=" M 749.77 62.502 C 749.77 55.602 744.168 50 737.258 50 L 500.502 50 C 493.602 50 488 55.602 488 62.502 L 488 299.263 C 488 306.163 493.602 311.765 500.502 311.765 L 737.258 311.765 C 744.168 311.765 749.77 306.163 749.77 299.263 L 749.77 62.502 Z " fill-rule="evenodd" fill="rgb(238,238,238)"/></g><text transform="matrix(1,0,0,1,552.82,286.22)" style="font-family:'Paprika';font-weight:400;font-size:36px;font-style:normal;fill:#000000;stroke:none;">Signup</text><path d=" M 701.759 84.761 C 701.759 80.353 698.212 76.775 693.837 76.775 L 543.927 76.775 C 539.558 76.775 536.011 80.353 536.011 84.761 L 536.011 236.013 C 536.011 240.421 539.558 244 543.927 244 L 693.837 244 C 698.212 244 701.759 240.421 701.759 236.013 L 701.759 84.761 Z " fill-rule="evenodd" fill="rgb(195,207,217)"/><path d=" M 675.577 103.193 C 675.577 102.744 673.143 102.38 670.139 102.38 L 567.241 102.38 C 564.242 102.38 561.808 102.744 561.808 103.193 L 561.808 118.572 C 561.808 119.02 564.242 119.384 567.241 119.384 L 670.139 119.384 C 673.143 119.384 675.577 119.02 675.577 118.572 L 675.577 103.193 Z " fill-rule="evenodd" fill="rgb(255,255,255)"/><path d=" M 675.577 204.31 C 675.577 203.862 673.143 203.498 670.139 203.498 L 567.241 203.498 C 564.242 203.498 561.808 203.862 561.808 204.31 L 561.808 219.69 C 561.808 220.138 564.242 220.502 567.241 220.502 L 670.139 220.502 C 673.143 220.502 675.577 220.138 675.577 219.69 L 675.577 204.31 Z " fill-rule="evenodd" fill="rgb(255,255,255)"/><path d=" M 675.577 171.31 C 675.577 170.862 673.143 170.498 670.139 170.498 L 567.241 170.498 C 564.242 170.498 561.808 170.862 561.808 171.31 L 561.808 186.69 C 561.808 187.138 564.242 187.502 567.241 187.502 L 670.139 187.502 C 673.143 187.502 675.577 187.138 675.577 186.69 L 675.577 171.31 Z " fill-rule="evenodd" fill="rgb(255,255,255)"/><path d=" M 675.577 138.31 C 675.577 137.862 673.143 137.498 670.139 137.498 L 567.241 137.498 C 564.242 137.498 561.808 137.862 561.808 138.31 L 561.808 153.69 C 561.808 154.138 564.242 154.502 567.241 154.502 L 670.139 154.502 C 673.143 154.502 675.577 154.138 675.577 153.69 L 675.577 138.31 Z " fill-rule="evenodd" fill="rgb(255,255,255)"/></g></svg>